# xmcd
#
# Track frame offsets:
#	150
#	18688
#	37341
#	65833
#	98117
#	119288
#	140966
#	182590
#	206557
#
# Disc length: 3639 seconds
#
# Revision: 0
# Processed by: cddbd v1.5.1PL2 Copyright (c) Steve Scherf et al.
# Submitted via: dBpowerAMP V4.0
#
DISCID=8e0e3509
DTITLE=Ilse DeLange - Dear John
DYEAR=1999
DGENRE=Pop
TTITLE0=It'll Come To You
TTITLE1=Child Of The Wild Blue Yonder
TTITLE2=Angel Eyes
TTITLE3=Inside Job
TTITLE4=Riding With The King
TTITLE5=Sure Pinocchio
TTITLE6=Feels Like Rain
TTITLE7=Back Of My Mind
TTITLE8=Have A Little Faith In Me
EXTD=
EXTT0=
EXTT1=
EXTT2=
EXTT3=
EXTT4=
EXTT5=
EXTT6=
EXTT7=
EXTT8=
PLAYORDER=
